# xmcd
#
# Track frame offsets:
#	150
#	36020
#	63738
#	81675
#	114406
#
# Disc length: 1916 seconds
# Revision: 0
# Processed by: cddbd v1.5.2PL0 Copyright (c) Steve Scherf et al.
# Submitted via: dBpowerAMP V12.0
#
DISCID=42077a05
DTITLE=Roy Buchanan - Live from Austin, TX
DYEAR=2012
DGENRE=Pop/Rock
TTITLE0=Roy's Bluz
TTITLE1=Soul Dressing
TTITLE2=Sweet Dreams
TTITLE3=Hey Joe
TTITLE4=The Messiah
EXTD=
EXTT0=
EXTT1=
EXTT2=
EXTT3=
EXTT4=
PLAYORDER=
